<svg aria-hidden="true" style="position: absolute; width: 0; height: 0; overflow: hidden;" version="1.1"
   xmlns="http://www.w3.org/2000/svg" xmlns:xlink="http://www.w3.org/1999/xlink">
   <defs>
      <symbol id="icon-arrow" viewBox="0 0 27 32">
         <path fill="#ff6b08" style="fill: var(--color1, #ff6b08)"
            d="M22.907 22.883c-0.061-0.304-0.312-0.448-0.493-0.64-1.315-1.387-2.651-2.765-3.971-4.157-0.56-0.589-0.613-1.221-0.168-1.669 0.443-0.448 1.061-0.408 1.608 0.16 2.107 2.187 4.211 4.381 6.307 6.579 0.643 0.675 0.635 1.147-0.013 1.829-2.080 2.181-4.163 4.357-6.253 6.525-0.576 0.597-1.139 0.643-1.608 0.171-0.467-0.475-0.397-1.085 0.16-1.672 1.301-1.371 2.616-2.733 3.92-4.104 0.184-0.192 0.427-0.339 0.499-0.643-0.205-0.211-0.461-0.112-0.688-0.112-6.869-0.008-13.741-0.011-20.619-0.011-1.301 0-1.579-0.293-1.579-1.653v-21.819c-0.005-0.079-0.009-0.172-0.009-0.265 0-0.174 0.011-0.346 0.032-0.515l-0.002 0.020c0.112-0.56 0.453-0.917 1.016-0.907 0.56 0.011 0.893 0.365 0.997 0.931 0.027 0.227 0.029 0.453 0.016 0.683 0 6.867 0.011 13.733-0.011 20.589 0 0.651 0.176 0.8 0.773 0.797 6.453-0.021 12.912-0.013 19.368-0.016 0.248 0.011 0.507 0.099 0.72-0.101z">
         </path>
      </symbol>
      <symbol id="icon-back" viewBox="0 0 64 32">
         <path fill="#ff6b08" style="fill: var(--color1, #ff6b08)"
            d="M0.733 17.269v0.003l13.067 13c0.444 0.409 1.039 0.66 1.693 0.66 1.381 0 2.501-1.12 2.501-2.501 0-0.658-0.254-1.257-0.67-1.704l0.001 0.002-8.771-8.728h52.944c1.381 0 2.5-1.119 2.5-2.5s-1.119-2.5-2.5-2.5h-52.941l8.773-8.728c0.454-0.453 0.735-1.080 0.735-1.772 0-1.382-1.121-2.503-2.503-2.503-0.69 0-1.315 0.279-1.768 0.731l0-0-13.061 13c-0.454 0.453-0.735 1.079-0.735 1.771s0.281 1.318 0.735 1.771l0 0z">
         </path>
      </symbol>
      <symbol id="icon-box" viewBox="0 0 32 32">
         <path fill="none" stroke="#a6abb9" style="stroke: var(--color2, #a6abb9)" stroke-linejoin="miter"
            stroke-linecap="butt" stroke-miterlimit="4" stroke-width="2.1333"
            d="M2.133 1.067h27.733c0.589 0 1.067 0.478 1.067 1.067v27.733c0 0.589-0.478 1.067-1.067 1.067h-27.733c-0.589 0-1.067-0.478-1.067-1.067v-27.733c0-0.589 0.478-1.067 1.067-1.067z">
         </path>
      </symbol>
      <symbol id="icon-checkbox" viewBox="0 0 32 32">
         <path fill="none" stroke="#ff6b08" style="stroke: var(--color1, #ff6b08)" stroke-linejoin="miter"
            stroke-linecap="butt" stroke-miterlimit="4" stroke-width="2.1333"
            d="M2.133 1.067h27.733c0.589 0 1.067 0.478 1.067 1.067v27.733c0 0.589-0.478 1.067-1.067 1.067h-27.733c-0.589 0-1.067-0.478-1.067-1.067v-27.733c0-0.589 0.478-1.067 1.067-1.067z">
         </path>
         <path fill="#ff6b08" style="fill: var(--color1, #ff6b08)"
            d="M29.76 8.945l-15.872 14.426c-0.067 0.058-0.155 0.094-0.252 0.094s-0.185-0.036-0.252-0.094l0 0-9.013-8.192c-0.064-0.056-0.104-0.138-0.104-0.229s0.040-0.173 0.104-0.229l0-0 2.191-1.99c0.067-0.059 0.156-0.095 0.253-0.095s0.186 0.036 0.253 0.095l-0-0 6.571 5.973 13.429-12.207c0.067-0.058 0.155-0.094 0.252-0.094s0.185 0.036 0.252 0.094l-0-0 2.191 1.99c0.064 0.056 0.104 0.138 0.104 0.229s-0.040 0.173-0.104 0.229l-0 0z">
         </path>
      </symbol>
      <symbol id="icon-delete" viewBox="0 0 25 32">
         <path fill="#a6abb9" style="fill: var(--color2, #a6abb9)"
            d="M19.556 10.667v17.778h-14.222v-17.778h14.222zM16.889 0h-8.889l-1.778 1.778h-6.222v3.556h24.889v-3.556h-6.222l-1.778-1.778zM23.111 7.111h-21.333v21.333c0 1.956 1.6 3.556 3.556 3.556h14.222c1.956 0 3.556-1.6 3.556-3.556v-21.333z">
         </path>
      </symbol>
      <symbol id="icon-flag" viewBox="0 0 28 32">
         <path fill="#a6abb9" style="fill: var(--color2, #a6abb9)"
            d="M13.854 3.765l0.753 3.765h9.864v11.294h-6.325l-0.753-3.765h-13.628v-11.294h10.089zM16.941 0h-16.941v32h3.765v-13.176h10.541l0.753 3.765h13.176v-18.824h-10.541l-0.753-3.765z">
         </path>
      </symbol>
      <symbol id="icon-flat" viewBox="0 0 41 32">
         <path fill="#a6abb9" style="fill: var(--color2, #a6abb9)"
            d="M37.647 0.941c-2.089-0.659-4.386-0.941-6.588-0.941-3.671 0-7.624 0.753-10.353 2.824-2.729-2.071-6.682-2.824-10.353-2.824s-7.624 0.753-10.353 2.824v27.576c0 0.471 0.471 0.941 0.941 0.941 0.188 0 0.282-0.094 0.471-0.094 2.541-1.224 6.212-2.071 8.941-2.071 3.671 0 7.624 0.753 10.353 2.824 2.541-1.6 7.153-2.824 10.353-2.824 3.106 0 6.306 0.565 8.941 1.976 0.188 0.094 0.282 0.094 0.471 0.094 0.471 0 0.941-0.471 0.941-0.941v-27.482c-1.129-0.847-2.353-1.412-3.765-1.882zM37.647 26.353c-2.071-0.659-4.329-0.941-6.588-0.941-3.2 0-7.812 1.224-10.353 2.824v-21.647c2.541-1.6 7.153-2.824 10.353-2.824 2.259 0 4.518 0.282 6.588 0.941v21.647z">
         </path>
         <path fill="#a6abb9" style="fill: var(--color2, #a6abb9)"
            d="M31.059 11.294c1.656 0 3.256 0.169 4.706 0.489v-2.861c-1.487-0.282-3.087-0.452-4.706-0.452-3.2 0-6.099 0.546-8.471 1.562v3.125c2.127-1.205 5.082-1.864 8.471-1.864zM22.588 15.040v3.125c2.127-1.205 5.082-1.864 8.471-1.864 1.656 0 3.256 0.169 4.706 0.489v-2.861c-1.487-0.282-3.087-0.452-4.706-0.452-3.2 0-6.099 0.565-8.471 1.562zM31.059 18.504c-3.2 0-6.099 0.546-8.471 1.562v3.125c2.127-1.205 5.082-1.864 8.471-1.864 1.656 0 3.256 0.169 4.706 0.489v-2.861c-1.487-0.301-3.087-0.452-4.706-0.452z">
         </path>
      </symbol>
      <symbol id="icon-read" viewBox="0 0 41 32">
         <path fill="#6D7A8D" style="fill: var(--color2, #6D7A8D)"
            d="M37.647 0.941c-2.089-0.659-4.386-0.941-6.588-0.941-3.671 0-7.624 0.753-10.353 2.824-2.729-2.071-6.682-2.824-10.353-2.824s-7.624 0.753-10.353 2.824v27.576c0 0.471 0.471 0.941 0.941 0.941 0.188 0 0.282-0.094 0.471-0.094 2.541-1.224 6.212-2.071 8.941-2.071 3.671 0 7.624 0.753 10.353 2.824 2.541-1.6 7.153-2.824 10.353-2.824 3.106 0 6.306 0.565 8.941 1.976 0.188 0.094 0.282 0.094 0.471 0.094 0.471 0 0.941-0.471 0.941-0.941v-27.482c-1.129-0.847-2.353-1.412-3.765-1.882zM37.647 26.353c-2.071-0.659-4.329-0.941-6.588-0.941-3.2 0-7.812 1.224-10.353 2.824v-21.647c2.541-1.6 7.153-2.824 10.353-2.824 2.259 0 4.518 0.282 6.588 0.941v21.647z">
         </path>
         <path fill="#6D7A8D" style="fill: var(--color2, #6D7A8D)"
            d="M31.059 11.294c1.656 0 3.256 0.169 4.706 0.489v-2.861c-1.487-0.282-3.087-0.452-4.706-0.452-3.2 0-6.099 0.546-8.471 1.562v3.125c2.127-1.205 5.082-1.864 8.471-1.864zM22.588 15.040v3.125c2.127-1.205 5.082-1.864 8.471-1.864 1.656 0 3.256 0.169 4.706 0.489v-2.861c-1.487-0.282-3.087-0.452-4.706-0.452-3.2 0-6.099 0.565-8.471 1.562zM31.059 18.504c-3.2 0-6.099 0.546-8.471 1.562v3.125c2.127-1.205 5.082-1.864 8.471-1.864 1.656 0 3.256 0.169 4.706 0.489v-2.861c-1.487-0.301-3.087-0.452-4.706-0.452z">
         </path>
      </symbol>
      <symbol id="icon-reading" viewBox="0 0 41 32">
         <path fill="#FF6B08" style="fill: var(--color2, #FF6B08)"
            d="M37.647 0.941c-2.089-0.659-4.386-0.941-6.588-0.941-3.671 0-7.624 0.753-10.353 2.824-2.729-2.071-6.682-2.824-10.353-2.824s-7.624 0.753-10.353 2.824v27.576c0 0.471 0.471 0.941 0.941 0.941 0.188 0 0.282-0.094 0.471-0.094 2.541-1.224 6.212-2.071 8.941-2.071 3.671 0 7.624 0.753 10.353 2.824 2.541-1.6 7.153-2.824 10.353-2.824 3.106 0 6.306 0.565 8.941 1.976 0.188 0.094 0.282 0.094 0.471 0.094 0.471 0 0.941-0.471 0.941-0.941v-27.482c-1.129-0.847-2.353-1.412-3.765-1.882zM37.647 26.353c-2.071-0.659-4.329-0.941-6.588-0.941-3.2 0-7.812 1.224-10.353 2.824v-21.647c2.541-1.6 7.153-2.824 10.353-2.824 2.259 0 4.518 0.282 6.588 0.941v21.647z">
         </path>
         <path fill="#FF6B08" style="fill: var(--color2, #FF6B08)"
            d="M31.059 11.294c1.656 0 3.256 0.169 4.706 0.489v-2.861c-1.487-0.282-3.087-0.452-4.706-0.452-3.2 0-6.099 0.546-8.471 1.562v3.125c2.127-1.205 5.082-1.864 8.471-1.864zM22.588 15.040v3.125c2.127-1.205 5.082-1.864 8.471-1.864 1.656 0 3.256 0.169 4.706 0.489v-2.861c-1.487-0.282-3.087-0.452-4.706-0.452-3.2 0-6.099 0.565-8.471 1.562zM31.059 18.504c-3.2 0-6.099 0.546-8.471 1.562v3.125c2.127-1.205 5.082-1.864 8.471-1.864 1.656 0 3.256 0.169 4.706 0.489v-2.861c-1.487-0.301-3.087-0.452-4.706-0.452z">
         </path>
      </symbol>
      <symbol id="icon-hand" viewBox="0 0 35 32">
         <path fill="#a6abb9" style="fill: var(--color2, #a6abb9)"
            d="M12.696 31.478h14.087c0.003 0 0.007 0 0.011 0 1.284 0 2.387-0.779 2.861-1.889l0.008-0.020 4.727-11.035c0.139-0.338 0.219-0.731 0.219-1.142v-3.13c0-1.722-1.409-3.13-3.13-3.13h-9.877l1.487-7.153 0.047-0.501c0-0.642-0.266-1.237-0.689-1.66l-1.661-1.643-10.313 10.315c-0.561 0.563-0.908 1.339-0.908 2.196 0 0.004 0 0.007 0 0.011v-0.001 15.652c0 1.722 1.409 3.13 3.13 3.13zM12.696 12.696l6.793-6.793-2.097 8.358h14.087v3.13l-4.696 10.957h-14.087v-15.652zM0.174 12.696h6.261v18.783h-6.261v-18.783z">
         </path>
      </symbol>
      <symbol id="icon-home" viewBox="0 0 38 32">
         <path fill="#a6abb9" style="fill: var(--color2, #a6abb9)"
            d="M18.824 5.064l9.412 8.471v14.701h-3.765v-11.294h-11.294v11.294h-3.765v-14.701l9.412-8.471zM18.824 0l-18.824 16.941h5.647v15.059h11.294v-11.294h3.765v11.294h11.294v-15.059h5.647l-18.824-16.941z">
         </path>
      </symbol>
      <symbol id="icon-item" viewBox="0 0 16 32">
         <path fill="#ff6b08" style="fill: var(--color1, #ff6b08)"
            d="M15.664 15.123l-13.706-14.762c-0.2-0.223-0.489-0.363-0.811-0.363s-0.611 0.14-0.81 0.362l-0.001 0.001c-0.209 0.232-0.337 0.54-0.337 0.878s0.128 0.647 0.338 0.88l-0.001-0.001 12.893 13.882-12.893 13.882c-0.208 0.231-0.336 0.539-0.336 0.877s0.128 0.645 0.337 0.878l-0.001-0.001c0.224 0.243 0.518 0.365 0.813 0.365 0.321-0.002 0.609-0.141 0.809-0.361l0.001-0.001 13.706-14.762c0.208-0.228 0.336-0.533 0.336-0.868 0-0.003 0-0.006-0-0.009v0c0-0.002 0-0.005 0-0.007 0-0.335-0.128-0.641-0.337-0.87l0.001 0.001z">
         </path>
      </symbol>
      <symbol id="icon-plus" viewBox="0 0 32 32">
         <path fill="#fff" style="fill: var(--color3, #fff)"
            d="M30.4 14.4h-12.8v-12.8c0-0.884-0.716-1.6-1.6-1.6s-1.6 0.716-1.6 1.6v0 12.8h-12.8c-0.884 0-1.6 0.716-1.6 1.6s0.716 1.6 1.6 1.6v0h12.8v12.8c0 0.884 0.716 1.6 1.6 1.6s1.6-0.716 1.6-1.6v0-12.8h12.8c0.884 0 1.6-0.716 1.6-1.6s-0.716-1.6-1.6-1.6v0z">
         </path>
      </symbol>
      <symbol id="icon-star" viewBox="0 0 34 32">
         <path
            d="M8.5 0L10.4084 5.87336L16.584 5.87336L11.5878 9.50329L13.4962 15.3766L8.5 11.7467L3.50383 15.3766L5.41219 9.50329L0.416019 5.87336L6.59163 5.87336L8.5 0Z"
            fill="#FF6B08" />
      </symbol>
      <symbol id="solid-star" viewBox="0 0 17 16">
         <path fill="#FF6B08" stroke="none" d="m8.5 0 1.908 5.873h6.176l-4.996 3.63 1.908 5.874-4.996-3.63-4.996 3.63 1.908-5.874-4.996-3.63h6.176L8.5 0Z"/>
      </symbol>
      <symbol id="hollow-star" viewBox="0 0 17 16">
         <path fill="none" d="m8.5 1.618 1.433 4.41.112.345h5L11.294 9.1 11 9.312l.112.346 1.433 4.41-3.751-2.726-.294-.213-.294.213-3.751 2.726 1.433-4.41L6 9.312 5.706 9.1 1.955 6.373h5l.112-.345L8.5 1.618Z"/>
      </symbol>

      <symbol id="icon-polygon" viewBox="0 0 52 32">
         <path fill="#939393" style="fill: var(--color1, #939393)" d="M26 32l-25.981-30h51.962l-25.981 30z"></path>
      </symbol>
      <symbol id="icon-rating" viewBox="0 0 101 17" fill="none">
         <path
            d="M8.5 0L10.4084 5.87336L16.584 5.87336L11.5878 9.50329L13.4962 15.3766L8.5 11.7467L3.50383 15.3766L5.41219 9.50329L0.416019 5.87336L6.59163 5.87336L8.5 0Z"
            fill="#FF6B08" />
         <path
            d="M29.5 0L31.4084 5.87336L37.584 5.87336L32.5878 9.50329L34.4962 15.3766L29.5 11.7467L24.5038 15.3766L26.4122 9.50329L21.416 5.87336L27.5916 5.87336L29.5 0Z"
            fill="#FF6B08" />
         <path
            d="M50.5 0L52.4084 5.87336L58.584 5.87336L53.5878 9.50329L55.4962 15.3766L50.5 11.7467L45.5038 15.3766L47.4122 9.50329L42.416 5.87336L48.5916 5.87336L50.5 0Z"
            fill="#FF6B08" />
         <path
            d="M71.5 0L73.4084 5.87336L79.584 5.87336L74.5878 9.50329L76.4962 15.3766L71.5 11.7467L66.5038 15.3766L68.4122 9.50329L63.416 5.87336L69.5916 5.87336L71.5 0Z"
            fill="#FF6B08" />
         <path
            d="M92.5 1.61804L93.9328 6.02786L94.0451 6.37336H94.4084L99.0451 6.37336L95.2939 9.09878L95 9.31231L95.1123 9.6578L96.5451 14.0676L92.7939 11.3422L92.5 11.1287L92.2061 11.3422L88.4549 14.0676L89.8877 9.6578L90 9.31231L89.7061 9.09878L85.9549 6.37336L90.5916 6.37336H90.9549L91.0672 6.02786L92.5 1.61804Z"
            stroke="#FF6B08" />
      </symbol>
      <symbol id="icon-more" viewBox="0 0 52 52" fill="none" xmlns="http://www.w3.org/2000/svg">
         <circle cx="26" cy="26" r="26" fill="#FF6B08" />
         <path
            d="M33.1999 25.2H26.8V18.7999C26.8 18.3584 26.4416 18 25.9999 18C25.5584 18 25.2 18.3584 25.2 18.7999V25.2H18.7999C18.3584 25.2 18 25.5584 18 25.9999C18 26.4416 18.3584 26.8 18.7999 26.8H25.2V33.1999C25.2 33.6416 25.5584 34 25.9999 34C26.4416 34 26.8 33.6416 26.8 33.1999V26.8H33.1999C33.6416 26.8 34 26.4416 34 25.9999C34 25.5584 33.6416 25.2 33.1999 25.2Z"
            fill="white" />
      </symbol>
   </defs>
</svg>