<svg width="101" height="17" viewBox="0 0 101 17" fill="none" xmlns="http://www.w3.org/2000/svg">
<path d="M8.5 0L10.4084 5.87336L16.584 5.87336L11.5878 9.50329L13.4962 15.3766L8.5 11.7467L3.50383 15.3766L5.41219 9.50329L0.416019 5.87336L6.59163 5.87336L8.5 0Z" fill="#FF6B08"/>
<path d="M29.5 0L31.4084 5.87336L37.584 5.87336L32.5878 9.50329L34.4962 15.3766L29.5 11.7467L24.5038 15.3766L26.4122 9.50329L21.416 5.87336L27.5916 5.87336L29.5 0Z" fill="#FF6B08"/>
<path d="M50.5 0L52.4084 5.87336L58.584 5.87336L53.5878 9.50329L55.4962 15.3766L50.5 11.7467L45.5038 15.3766L47.4122 9.50329L42.416 5.87336L48.5916 5.87336L50.5 0Z" fill="#FF6B08"/>
<path d="M71.5 0L73.4084 5.87336L79.584 5.87336L74.5878 9.50329L76.4962 15.3766L71.5 11.7467L66.5038 15.3766L68.4122 9.50329L63.416 5.87336L69.5916 5.87336L71.5 0Z" fill="#FF6B08"/>
<path d="M92.5 1.61804L93.9328 6.02786L94.0451 6.37336H94.4084L99.0451 6.37336L95.2939 9.09878L95 9.31231L95.1123 9.6578L96.5451 14.0676L92.7939 11.3422L92.5 11.1287L92.2061 11.3422L88.4549 14.0676L89.8877 9.6578L90 9.31231L89.7061 9.09878L85.9549 6.37336L90.5916 6.37336H90.9549L91.0672 6.02786L92.5 1.61804Z" stroke="#FF6B08"/>
</svg>
